<svg width="48" height="48" viewBox="0 0 48 48" fill="none" xmlns="http://www.w3.org/2000/svg">
<path opacity="0.5" d="M4 20C4 14.4772 8.47716 10 14 10C14.501 10 14.9935 10.0368 15.4747 10.108C16.6792 6.55612 20.0412 4 24 4C27.9588 4 31.3208 6.55612 32.5252 10.108C33.0066 10.0368 33.499 10 34 10C39.5228 10 44 14.4772 44 20C44 24.1006 41.5318 27.6248 38 29.168V36C38 39.7712 38 41.6568 36.8284 42.8284C35.6568 44 33.7712 44 30 44H18C14.2288 44 12.3431 44 11.1716 42.8284C10 41.6568 10 39.7712 10 36V29.168C6.4682 27.6248 4 24.1006 4 20Z" fill="#2C5F2D"/>
<path d="M18 34.5C17.1716 34.5 16.5 35.1716 16.5 36C16.5 36.8284 17.1716 37.5 18 37.5H30C30.8284 37.5 31.5 36.8284 31.5 36C31.5 35.1716 30.8284 34.5 30 34.5H18Z" fill="#2C5F2D"/>
</svg>
